<svg width="56" height="56" viewBox="0 0 56 56" fill="none" xmlns="http://www.w3.org/2000/svg">
<path d="M47.9741 23.7738L30.4741 6.27383C29.8178 5.61795 28.9279 5.24951 28 5.24951C27.0722 5.24951 26.1823 5.61795 25.526 6.27383L8.02596 23.7738C7.69938 24.098 7.44049 24.4838 7.26437 24.9089C7.08824 25.3341 6.99838 25.7899 7.00002 26.2501V47.2501C7.00002 47.7142 7.1844 48.1593 7.51259 48.4875C7.84077 48.8157 8.28589 49.0001 8.75002 49.0001H47.25C47.7142 49.0001 48.1593 48.8157 48.4875 48.4875C48.8157 48.1593 49 47.7142 49 47.2501V26.2501C49.0017 25.7899 48.9118 25.3341 48.7357 24.9089C48.5596 24.4838 48.3007 24.098 47.9741 23.7738ZM45.5 45.5001H10.5V26.2501L28 8.75008L45.5 26.2501V45.5001Z" fill="#554455"/>
</svg>
