<svg width="199" height="199" viewBox="0 0 199 199" fill="none" xmlns="http://www.w3.org/2000/svg">
<path d="M178.525 169.725L139.603 130.811C150.884 117.268 156.509 99.8963 155.309 82.3108C154.108 64.7253 146.174 48.2796 133.157 36.395C120.14 24.5103 103.042 18.1016 85.42 18.5021C67.7981 18.9026 51.0089 26.0814 38.5452 38.5452C26.0814 51.0089 18.9026 67.7981 18.5021 85.42C18.1016 103.042 24.5103 120.14 36.395 133.157C48.2796 146.174 64.7253 154.108 82.3108 155.309C99.8963 156.509 117.268 150.884 130.811 139.603L169.725 178.525C170.303 179.103 170.989 179.561 171.744 179.874C172.499 180.186 173.308 180.347 174.125 180.347C174.942 180.347 175.751 180.186 176.506 179.874C177.261 179.561 177.947 179.103 178.525 178.525C179.103 177.947 179.561 177.261 179.874 176.506C180.186 175.751 180.347 174.942 180.347 174.125C180.347 173.308 180.186 172.499 179.874 171.744C179.561 170.989 179.103 170.303 178.525 169.725ZM31.0937 87.0624C31.0937 75.9929 34.3762 65.1719 40.5261 55.9679C46.6761 46.7639 55.4172 39.5902 65.6441 35.3541C75.8711 31.1179 87.1245 30.0096 97.9814 32.1691C108.838 34.3287 118.811 39.6592 126.638 47.4866C134.466 55.3139 139.796 65.2866 141.956 76.1435C144.115 87.0004 143.007 98.2538 138.771 108.481C134.535 118.708 127.361 127.449 118.157 133.599C108.953 139.749 98.132 143.031 87.0624 143.031C72.2237 143.015 57.9974 137.113 47.5047 126.62C37.0121 116.128 31.1102 101.901 31.0937 87.0624Z" fill="#5C5C5C"/>
</svg>
