<svg width="62" height="61" viewBox="0 0 62 61" fill="none" xmlns="http://www.w3.org/2000/svg">
<path d="M30.875 0C24.7685 0 18.7992 1.78696 13.7218 5.13491C8.64441 8.48286 4.68709 13.2414 2.35023 18.8089C0.0133777 24.3763 -0.59805 30.5026 0.593268 36.4129C1.78459 42.3233 4.72515 47.7523 9.04309 52.0134C13.361 56.2745 18.8624 59.1764 24.8516 60.352C30.8408 61.5277 37.0487 60.9243 42.6904 58.6182C48.332 56.3121 53.154 52.4068 56.5466 47.3963C59.9392 42.3857 61.75 36.4949 61.75 30.4688C61.7414 22.3906 58.4857 14.6457 52.6974 8.93351C46.9091 3.22136 39.0609 0.00853072 30.875 0ZM14.8675 50.8301C16.5856 48.1784 18.9525 45.9961 21.75 44.4845C24.5475 42.973 27.6856 42.1806 30.875 42.1806C34.0644 42.1806 37.2025 42.973 40 44.4845C42.7975 45.9961 45.1644 48.1784 46.8825 50.8301C42.3057 54.3427 36.6731 56.2498 30.875 56.2498C25.077 56.2498 19.4443 54.3427 14.8675 50.8301ZM21.375 28.125C21.375 26.2708 21.9322 24.4582 22.9761 22.9165C24.0199 21.3748 25.5036 20.1732 27.2395 19.4636C28.9754 18.7541 30.8856 18.5684 32.7284 18.9301C34.5712 19.2919 36.2639 20.1848 37.5925 21.4959C38.9211 22.807 39.8259 24.4775 40.1925 26.296C40.559 28.1146 40.3709 29.9996 39.6519 31.7127C38.9328 33.4257 37.7152 34.8899 36.1529 35.92C34.5907 36.9502 32.7539 37.5 30.875 37.5C28.3555 37.5 25.9391 36.5123 24.1575 34.7541C22.3759 32.996 21.375 30.6114 21.375 28.125ZM50.3975 47.5811C47.7487 43.7932 44.0241 40.8627 39.6922 39.1582C42.0192 37.3495 43.7171 34.8703 44.55 32.0651C45.383 29.26 45.3094 26.2684 44.3395 23.5065C43.3697 20.7445 41.5518 18.3495 39.1386 16.6544C36.7255 14.9593 33.8371 14.0484 30.875 14.0484C27.913 14.0484 25.0245 14.9593 22.6114 16.6544C20.1982 18.3495 18.3804 20.7445 17.4105 23.5065C16.4407 26.2684 16.3671 29.26 17.2 32.0651C18.0329 34.8703 19.7309 37.3495 22.0578 39.1582C17.7259 40.8627 14.0013 43.7932 11.3525 47.5811C8.00545 43.8667 5.81779 39.2767 5.05296 34.3638C4.28813 29.4509 4.97875 24.4245 7.04164 19.8899C9.10454 15.3554 12.4518 11.506 16.6802 8.80528C20.9087 6.10458 25.8382 4.66771 30.875 4.66771C35.9118 4.66771 40.8413 6.10458 45.0698 8.80528C49.2983 11.506 52.6455 15.3554 54.7084 19.8899C56.7713 24.4245 57.4619 29.4509 56.6971 34.3638C55.9322 39.2767 53.7446 43.8667 50.3975 47.5811Z" fill="#545454"/>
</svg>
